# Blender 4.1.0
# www.blender.org
mtllib godotasset.mtl
o Cube
v 0.875743 0.250598 -0.990000
v 0.875743 0.286154 -0.866986
v 1.000000 0.250598 -0.866986
v 0.875743 -0.286154 -0.866986
v 0.875743 -0.250598 -0.990000
v 1.000000 -0.250598 -0.866986
v 1.000000 0.250598 0.866986
v 0.875743 0.286154 0.866986
v 0.875743 0.250598 0.990000
v 1.000000 -0.250598 0.866986
v 0.875743 -0.250598 0.990000
v 0.875743 -0.286154 0.866986
v -0.875743 0.250598 -0.990000
v -1.000000 0.250598 -0.866986
v -0.875743 0.286154 -0.866986
v -1.000000 -0.250598 -0.866986
v -0.875743 -0.250598 -0.990000
v -0.875743 -0.286154 -0.866986
v -1.000000 0.250598 0.866986
v -0.875743 0.250598 0.990000
v -0.875743 0.286154 0.866986
v -0.875743 -0.286154 0.866986
v -0.875743 -0.250598 0.990000
v -1.000000 -0.250598 0.866986
vn -0.0000 -1.0000 -0.0000
vn -1.0000 -0.0000 -0.0000
vn -0.0000 -0.0000 1.0000
vn -0.0000 1.0000 -0.0000
vn 1.0000 -0.0000 -0.0000
vn 0.2651 0.9263 -0.2677
vn 0.2651 -0.9263 -0.2677
vn 0.2651 0.9263 0.2677
vn 0.2651 -0.9263 0.2677
vn -0.2651 0.9263 -0.2677
vn -0.2651 -0.9263 -0.2677
vn -0.2651 0.9263 0.2677
vn -0.2651 -0.9263 0.2677
vn -0.2751 -0.9614 -0.0000
vn -0.0000 -0.9607 -0.2777
vn 0.7035 -0.0000 -0.7107
vn -0.7035 -0.0000 0.7107
vn 0.7035 -0.0000 0.7107
vn -0.7035 -0.0000 -0.7107
vn -0.0000 0.9607 0.2777
vn 0.2751 0.9614 -0.0000
vn -0.0000 -0.9607 0.2777
vn -0.2751 0.9614 -0.0000
vn -0.0000 0.9607 -0.2777
vn 0.2751 -0.9614 -0.0000
vn -0.0000 -0.0000 -1.0000
vt 0.140532 0.515532
vt 0.359468 0.515532
vt 0.359468 0.734468
vt 0.140532 0.734468
vt 0.390532 0.015532
vt 0.609468 0.015532
vt 0.609468 0.234468
vt 0.390532 0.234468
vt 0.390532 0.765532
vt 0.609468 0.765532
vt 0.609468 0.984468
vt 0.390532 0.984468
vt 0.640532 0.515532
vt 0.859468 0.515532
vt 0.859468 0.734468
vt 0.640532 0.734468
vt 0.390532 0.515532
vt 0.609468 0.515532
vt 0.609468 0.734468
vt 0.390532 0.734468
vt 0.609468 0.484468
vt 0.625000 0.484468
vt 0.609468 0.500000
vt 0.359468 0.500000
vt 0.375000 0.515532
vt 0.609468 0.750000
vt 0.625000 0.765532
vt 0.375000 0.734468
vt 0.359468 0.750000
vt 0.609468 0.250000
vt 0.625000 0.234468
vt 0.125000 0.515532
vt 0.140532 0.500000
vt 0.609468 0.000000
vt 0.625000 0.015532
vt 0.140532 0.750000
vt 0.125000 0.734468
vt 0.390532 0.484468
vt 0.390532 0.000000
vt 0.609468 0.265532
vt 0.390532 0.265532
vt 0.625000 0.984468
vt 0.625000 0.265532
s 0
usemtl Material
f 18/1/1 4/2/1 12/3/1 22/4/1
f 24/5/2 19/6/2 14/7/2 16/8/2
f 11/9/3 9/10/3 20/11/3 23/12/3
f 2/13/4 15/14/4 21/15/4 8/16/4
f 6/17/5 3/18/5 7/19/5 10/20/5
f 1/21/6 2/22/6 3/23/6
f 4/2/7 5/24/7 6/25/7
f 7/26/8 8/27/8 9/10/8
f 10/28/9 11/29/9 12/3/9
f 13/30/10 14/7/10 15/31/10
f 16/32/11 17/33/11 18/1/11
f 19/6/12 20/34/12 21/35/12
f 22/4/13 23/36/13 24/37/13
f 18/1/14 22/4/14 24/37/14 16/32/14
f 4/2/15 18/1/15 17/33/15 5/24/15
f 3/18/16 6/17/16 5/38/16 1/21/16
f 23/39/17 20/34/17 19/6/17 24/5/17
f 9/10/18 11/9/18 10/20/18 7/19/18
f 13/40/19 17/41/19 16/8/19 14/7/19
f 8/27/20 21/42/20 20/11/20 9/10/20
f 2/13/21 8/16/21 7/19/21 3/18/21
f 22/4/22 12/3/22 11/29/22 23/36/22
f 21/35/23 15/31/23 14/7/23 19/6/23
f 15/43/24 2/22/24 1/21/24 13/40/24
f 12/3/25 4/2/25 6/17/25 10/20/25
f 17/41/26 13/40/26 1/21/26 5/38/26
